<mxfile host="app.diagrams.net" modified="2024-04-10T15:04:14.920Z" agent="Mozilla/5.0 (Windows NT 10.0; Win64; x64) AppleWebKit/537.36 (KHTML, like Gecko) Chrome/123.0.0.0 Safari/537.36" etag="-7NxMRu6Zdr_hSFzQ-X5" version="22.1.17" type="github">
  <diagram name="Seite-1" id="rYc_Q8sDxOewqW9Bmz8I">
    <mxGraphModel dx="11816" dy="4560" grid="1" gridSize="10" guides="1" tooltips="1" connect="1" arrows="1" fold="1" page="1" pageScale="5" pageWidth="827" pageHeight="1169" math="0" shadow="0">
      <root>
        <mxCell id="0" />
        <mxCell id="1" parent="0" />
        <mxCell id="Cep5sxL7EMLsXF3ZdVF6-1" value="&lt;div style=&quot;margin-top: 0pt; margin-bottom: 0pt; text-indent: -0.38in; font-size: 120px;&quot; class=&quot;O0&quot;&gt;&lt;b&gt;&lt;font style=&quot;font-size: 120px;&quot;&gt;Stop word removal&lt;/font&gt;&lt;span style=&quot;&quot;&gt;&lt;br&gt;&lt;/span&gt;&lt;/b&gt;&lt;span style=&quot;font-weight: normal;&quot;&gt;&lt;font style=&quot;font-size: 100px;&quot;&gt;&amp;lt;Zones&amp;gt;&amp;lt;forbidden&amp;gt;&amp;lt;flying&amp;gt;&amp;lt;drones&amp;gt;&amp;lt;Switzerland&amp;gt;&lt;/font&gt;&lt;/span&gt;&lt;/div&gt;" style="rounded=0;whiteSpace=wrap;html=1;container=0;" parent="1" vertex="1">
          <mxGeometry x="170" y="1234.2105263157894" width="3470" height="390.78947368421046" as="geometry" />
        </mxCell>
        <mxCell id="Cep5sxL7EMLsXF3ZdVF6-2" value="&lt;div style=&quot;margin-top: 0pt; margin-bottom: 0pt; text-indent: -0.38in;&quot; class=&quot;O0&quot;&gt;&lt;font size=&quot;1&quot; style=&quot;&quot;&gt;&lt;b style=&quot;font-size: 120px;&quot;&gt;Stemming&lt;/b&gt;&lt;/font&gt;&lt;br&gt;&lt;span style=&quot;font-size: 100px; font-weight: normal;&quot;&gt;&amp;lt;zone&amp;gt;&amp;lt;forbidden&amp;gt;&amp;lt;fly&amp;gt;&amp;lt;drone&amp;gt;&amp;lt;switzerland&amp;gt;&lt;/span&gt;&lt;/div&gt;" style="rounded=0;whiteSpace=wrap;html=1;container=0;" parent="1" vertex="1">
          <mxGeometry x="170" y="1781.315789473684" width="3470" height="390.78947368421046" as="geometry" />
        </mxCell>
        <mxCell id="Cep5sxL7EMLsXF3ZdVF6-10" style="edgeStyle=orthogonalEdgeStyle;rounded=0;orthogonalLoop=1;jettySize=auto;html=1;exitX=0.5;exitY=1;exitDx=0;exitDy=0;entryX=0.5;entryY=0;entryDx=0;entryDy=0;" parent="1" source="Cep5sxL7EMLsXF3ZdVF6-1" target="Cep5sxL7EMLsXF3ZdVF6-2" edge="1">
          <mxGeometry relative="1" as="geometry" />
        </mxCell>
        <mxCell id="Cep5sxL7EMLsXF3ZdVF6-3" value="&lt;div style=&quot;margin-top: 0pt; margin-bottom: 0pt; text-indent: -0.38in; font-size: 120px;&quot; class=&quot;O0&quot;&gt;&lt;font style=&quot;font-size: 120px;&quot;&gt;&lt;b style=&quot;&quot;&gt;&amp;nbsp; Search Query&lt;/b&gt;&lt;/font&gt;&lt;/div&gt;&lt;div style=&quot;margin-top: 0pt; margin-bottom: 0pt; text-indent: -0.38in; font-size: 120px;&quot; class=&quot;O0&quot;&gt;&lt;span style=&quot;font-weight: normal;&quot;&gt;&lt;font style=&quot;font-size: 100px;&quot;&gt;Zones where it&#39;s forbidden flying drones in Switzerland&lt;/font&gt;&lt;/span&gt;&lt;/div&gt;" style="rounded=0;whiteSpace=wrap;html=1;align=center;container=0;fontSize=50;" parent="1" vertex="1">
          <mxGeometry x="170" y="140" width="3470" height="390.78947368421046" as="geometry" />
        </mxCell>
        <mxCell id="Cep5sxL7EMLsXF3ZdVF6-9" style="edgeStyle=orthogonalEdgeStyle;rounded=0;orthogonalLoop=1;jettySize=auto;html=1;exitX=0.5;exitY=1;exitDx=0;exitDy=0;entryX=0.5;entryY=0;entryDx=0;entryDy=0;" parent="1" source="Cep5sxL7EMLsXF3ZdVF6-4" target="Cep5sxL7EMLsXF3ZdVF6-1" edge="1">
          <mxGeometry relative="1" as="geometry" />
        </mxCell>
        <mxCell id="Cep5sxL7EMLsXF3ZdVF6-4" value="&lt;div style=&quot;margin-top: 0pt; margin-bottom: 0pt; text-indent: -0.38in; font-size: 120px;&quot; class=&quot;O0&quot;&gt;&lt;font style=&quot;font-size: 120px;&quot;&gt;&lt;b style=&quot;&quot;&gt;&lt;font style=&quot;font-size: 120px;&quot;&gt;Tokenization&lt;/font&gt;&lt;/b&gt;&lt;/font&gt;&lt;/div&gt;&lt;div style=&quot;margin-top: 0pt; margin-bottom: 0pt; text-indent: -0.38in; font-size: 100px;&quot; class=&quot;O0&quot;&gt;&lt;span style=&quot;text-indent: -0.38in; background-color: initial;&quot;&gt;&amp;nbsp; &amp;nbsp; &amp;nbsp; &amp;nbsp;&lt;/span&gt;&lt;span style=&quot;text-indent: -0.38in; background-color: initial;&quot;&gt;&amp;lt;Zones&amp;gt;&amp;lt;where&amp;gt;&amp;lt;it&amp;gt;&amp;lt;is&amp;gt;&amp;lt;forbidden&amp;gt;&amp;lt;flying&amp;gt;&amp;lt;drones&amp;gt;&amp;lt;in&amp;gt;&amp;lt;Switzerland&amp;gt;&lt;/span&gt;&lt;/div&gt;" style="rounded=0;whiteSpace=wrap;html=1;align=center;container=0;" parent="1" vertex="1">
          <mxGeometry x="170" y="687.1052631578947" width="3470" height="390.78947368421046" as="geometry" />
        </mxCell>
        <mxCell id="Cep5sxL7EMLsXF3ZdVF6-8" style="edgeStyle=orthogonalEdgeStyle;rounded=0;orthogonalLoop=1;jettySize=auto;html=1;exitX=0.5;exitY=1;exitDx=0;exitDy=0;entryX=0.5;entryY=0;entryDx=0;entryDy=0;" parent="1" source="Cep5sxL7EMLsXF3ZdVF6-3" target="Cep5sxL7EMLsXF3ZdVF6-4" edge="1">
          <mxGeometry relative="1" as="geometry" />
        </mxCell>
        <mxCell id="Cep5sxL7EMLsXF3ZdVF6-5" value="&lt;div&gt;&lt;font style=&quot;font-size: 14px;&quot;&gt;Search Results&lt;/font&gt;&lt;/div&gt;&lt;div&gt;&lt;br&gt;&lt;/div&gt;&lt;div&gt;&lt;br&gt;&lt;/div&gt;&lt;div&gt;&lt;br&gt;&lt;/div&gt;&lt;div&gt;&lt;br&gt;&lt;/div&gt;&lt;div&gt;&lt;br&gt;&lt;/div&gt;" style="rounded=0;whiteSpace=wrap;html=1;container=0;" parent="1" vertex="1">
          <mxGeometry x="170" y="2328.4210526315787" width="3470" height="781.5789473684209" as="geometry" />
        </mxCell>
        <mxCell id="Cep5sxL7EMLsXF3ZdVF6-11" style="edgeStyle=orthogonalEdgeStyle;rounded=0;orthogonalLoop=1;jettySize=auto;html=1;exitX=0.5;exitY=1;exitDx=0;exitDy=0;entryX=0.5;entryY=0;entryDx=0;entryDy=0;" parent="1" source="Cep5sxL7EMLsXF3ZdVF6-2" target="Cep5sxL7EMLsXF3ZdVF6-5" edge="1">
          <mxGeometry relative="1" as="geometry" />
        </mxCell>
        <mxCell id="Cep5sxL7EMLsXF3ZdVF6-6" value="&lt;div style=&quot;margin-top: 0pt; margin-bottom: 0pt; text-indent: -0.38in;&quot; class=&quot;O0&quot;&gt;&lt;b style=&quot;&quot;&gt;&lt;font style=&quot;font-size: 120px;&quot;&gt;Exact matches for:&lt;/font&gt;&lt;/b&gt;&amp;nbsp;&lt;/div&gt;&lt;div style=&quot;margin-top: 0pt; margin-bottom: 0pt; text-indent: -0.38in; font-size: 100px;&quot; class=&quot;O0&quot;&gt;&lt;span style=&quot;font-weight: normal; font-style: normal; font-size: 100px;&quot;&gt;&amp;lt;zones&amp;gt;&amp;lt;forbidden&amp;gt;&amp;lt;flying&amp;gt;&amp;lt;drones&amp;gt;&amp;lt;switzerland&amp;gt;&lt;/span&gt;&lt;/div&gt;" style="rounded=0;whiteSpace=wrap;html=1;container=0;fontSize=100;" parent="1" vertex="1">
          <mxGeometry x="243.82978723404256" y="2562.8947368421045" width="1698.0851063829784" height="468.94736842105254" as="geometry" />
        </mxCell>
        <mxCell id="Cep5sxL7EMLsXF3ZdVF6-7" value="&lt;div style=&quot;margin-top: 0pt; margin-bottom: 0pt; text-indent: -0.38in; font-size: 120px;&quot; class=&quot;O0&quot;&gt;&lt;font style=&quot;font-size: 120px;&quot;&gt;&lt;b&gt;Similarity matches for:&amp;nbsp;&lt;/b&gt;&lt;/font&gt;&lt;/div&gt;&lt;div style=&quot;margin-top: 0pt; margin-bottom: 0pt; text-indent: -0.38in; font-size: 120px;&quot; class=&quot;O0&quot;&gt;&lt;span style=&quot;font-weight: normal; font-style: normal;&quot;&gt;&amp;lt;zone&amp;gt;&amp;lt;forbidden&amp;gt;&amp;lt;fly&amp;gt;&amp;lt;drone&amp;gt;&amp;lt;switzerland&amp;gt;&lt;/span&gt;&lt;/div&gt;" style="rounded=0;whiteSpace=wrap;html=1;container=0;fontSize=100;" parent="1" vertex="1">
          <mxGeometry x="2015.744680851064" y="2562.8947368421045" width="1550.4255319148936" height="468.94736842105254" as="geometry" />
        </mxCell>
      </root>
    </mxGraphModel>
  </diagram>
</mxfile>
